<?xml version="1.0" encoding="UTF-8"?>
<svg id="_Шар_1" data-name="Шар 1" xmlns="http://www.w3.org/2000/svg" viewBox="0 0 2382 745">
  <g>
    <path d="M308.9,422.12h153.21v-46.96h-153.21v46.96ZM308.9,209.69v47.41h153.21v-47.41h-153.21ZM449.38,292.2h-140.48v47.41h140.48v-47.41Z"/>
    <path d="M490.78,422.13v-212.43h51.26v165.47l167.55-.44v47.11l-218.8.3Z"/>
    <path d="M739.25,422.13v-212.43h205.47v47.41h-154.21v35.11h141.47v47.4h-141.47v35.55h154.21v46.96h-205.47Z"/>
    <path d="M1172.26,353.54l42.81,30.07-3.11,2.96c-11.46,12.54-28.1,22.27-49.92,29.18-21.83,6.91-43.6,10.37-65.33,10.37-33.68,0-61.48-7.68-83.4-23.04-21.92-15.36-36-35.73-42.22-61.11-2.47-10.07-3.7-18.76-3.7-26.07s1.23-16.3,3.7-26.37c6.32-25.08,20.47-45.31,42.44-60.66,21.97-15.36,49.7-23.04,83.18-23.04,21.73,0,43.5,3.41,65.33,10.22,21.83,6.81,38.46,16.44,49.92,28.89l3.11,3.26-42.81,30.37-4-3.85c-6.62-6.42-17.06-11.68-31.33-15.78-14.27-4.1-27.68-6.15-40.22-6.15-11.26,0-21.68,1.68-31.26,5.04-9.58,3.36-17.63,7.9-24.15,13.63-6.52,5.73-11.61,12.44-15.26,20.15-3.66,7.7-5.48,15.8-5.48,24.29,0,17.68,7.04,32.57,21.11,44.66,14.07,12.1,32.42,18.15,55.03,18.15,12.64,0,26.07-2,40.29-6s24.64-9.16,31.26-15.48l4-3.7Z"/>
    <path d="M1425.99,347.76c12.44-.99,23.21-3.41,32.3-7.26,9.08-3.85,16.29-8.91,21.62-15.19,5.34-6.27,9.26-13.3,11.78-21.11,2.52-7.8,3.78-16.54,3.78-26.22,0-21.33-7.61-38.04-22.81-50.14-15.21-12.1-36.94-18.15-65.19-18.15h-89.62v47.41h91.11c10.46,0,18.74,1.67,24.81,5.03,6.07,3.36,9.11,8.55,9.11,15.56,0,8.88-1.98,14.96-5.93,18.22-3.95,3.26-11.55,4.89-22.81,4.89h-96.29v46.96h34.96l83.4,74.36h73.78l-84-74.36Z"/>
    <path d="M1534.65,422.13v-212.43h205.47v47.41h-154.21v35.11h141.47v47.4h-141.47v35.55h154.21v46.96h-205.47Z"/>
    <path d="M1769.28,422.13v-212.43h51.26v212.43h-51.26Z"/>
    <path d="M1849.7,422.13v-212.43h115.99c14.52,0,28.05,2.15,40.59,6.44,12.54,4.3,23.16,10,31.85,17.11,8.69,7.11,16.17,15.28,22.44,24.52,6.27,9.24,10.89,18.79,13.85,28.67,2.96,9.88,4.44,19.7,4.44,29.48s-1.48,19.46-4.44,29.33c-2.96,9.88-7.56,19.43-13.78,28.67-6.22,9.24-13.68,17.43-22.37,24.59-8.69,7.16-19.31,12.89-31.85,17.18-12.54,4.3-26.12,6.44-40.74,6.44h-115.99ZM1900.96,374.72h64.74c9.38,0,17.97-1.7,25.78-5.11,7.8-3.41,14.17-7.92,19.11-13.55,4.94-5.63,8.74-11.9,11.41-18.81,2.67-6.91,4-14.02,4-21.33s-1.36-14.12-4.07-21.04c-2.72-6.91-6.54-13.16-11.48-18.74-4.94-5.58-11.28-10.1-19.04-13.56-7.75-3.46-16.32-5.18-25.7-5.18h-64.74v117.33Z"/>
  </g>
  <g>
    <path d="M303.12,528.69l7.45-5.63c2.81,2.34,6.49,4.13,11.04,5.39,4.55,1.26,8.74,1.89,12.55,1.89,2.45,0,4.46-.03,6.03-.09,3.4-.38,5.88-.75,7.45-1.11,6.71-1.6,10.07-4.83,10.07-9.71,0-4.14-3.3-6.68-9.89-7.63-1.92-.33-5.18-.61-9.76-.84-4.58-.24-7.42-.4-8.52-.49-2.96-.27-5.55-.61-7.78-1.02-2.23-.41-4.47-1.05-6.7-1.91-2.23-.86-4.07-1.91-5.5-3.15-1.43-1.24-2.59-2.85-3.48-4.81-.89-1.97-1.33-4.25-1.33-6.85,0-2.93.61-5.54,1.84-7.83,1.23-2.29,2.82-4.15,4.79-5.57,1.97-1.42,4.3-2.59,7.01-3.53,2.71-.93,5.4-1.58,8.09-1.95,2.69-.37,5.5-.55,8.43-.55,4.79,0,10.08.99,15.88,2.97,5.8,1.98,10.82,4.5,15.08,7.54l-7.45,5.37c-2.75-2.28-6.39-4.01-10.91-5.19-4.52-1.18-8.72-1.77-12.6-1.77-2.42,0-4.3.03-5.63.09-1.39.18-2.54.34-3.46.49-.92.15-2.03.38-3.33.71-1.3.33-2.37.74-3.22,1.24-.84.5-1.67,1.12-2.48,1.86-.81.74-1.42,1.66-1.82,2.75-.4,1.09-.6,2.34-.6,3.73,0,4.38,3.27,7.17,9.8,8.38,1.51.27,3.25.49,5.23.67,1.98.18,4.28.35,6.9.51,2.62.16,4.72.32,6.32.47,2.1.18,3.98.38,5.66.6,1.67.22,3.39.54,5.15.95,1.76.41,3.3.9,4.64,1.46,1.33.56,2.59,1.26,3.79,2.11,1.2.84,2.18,1.8,2.95,2.88.77,1.08,1.38,2.35,1.84,3.81.46,1.46.69,3.08.69,4.86,0,2.25-.37,4.3-1.11,6.17-.74,1.86-1.72,3.45-2.95,4.77-1.23,1.32-2.73,2.48-4.5,3.48-1.77,1.01-3.62,1.82-5.54,2.44-1.92.62-4.01,1.12-6.28,1.51-2.26.38-4.41.65-6.45.8-2.04.15-4.15.22-6.34.22-4.82,0-10.11-.98-15.88-2.95-5.77-1.97-10.82-4.47-15.17-7.52Z"/>
    <path d="M386.48,537.78v-63.21h4.66l32.34,44.31,32.25-44.31h4.7v63.21h-8.6v-43.07l-25.64,35.17h-5.54l-25.59-35.17v43.07h-8.56Z"/>
    <path d="M480.67,537.78l35.88-63.21h5.19l35.97,63.21h-10.11l-7.81-13.79h-41.34l-7.81,13.79h-9.98ZM503.47,515.16h31.36l-15.66-27.72-15.7,27.72Z"/>
    <path d="M577.82,537.78v-63.21h40.45c3.43,0,6.54.35,9.34,1.04,2.79.7,5.3,1.77,7.52,3.24,2.22,1.46,3.94,3.45,5.17,5.94,1.23,2.5,1.84,5.45,1.84,8.85,0,6.86-1.88,11.86-5.63,14.99-3.76,3.13-9.17,4.7-16.23,4.7h-4.83l26.17,24.44h-12.73l-26.13-24.44h-16.37v24.44h-8.56ZM586.38,504.43h33.98c1.51,0,2.83-.07,3.97-.22,1.14-.15,2.29-.44,3.46-.89,1.17-.44,2.12-1.06,2.86-1.84.74-.78,1.35-1.84,1.82-3.17.47-1.33.71-2.91.71-4.75s-.43-3.58-1.29-4.97c-.86-1.39-2.02-2.45-3.48-3.17-1.46-.72-2.99-1.25-4.59-1.57-1.6-.33-3.3-.49-5.1-.49h-32.34v21.07Z"/>
    <path d="M694.98,537.78v-54.42h-31.36v-8.78h71.32v8.78h-31.36v54.42h-8.6Z"/>
    <path d="M789.94,537.78v-63.21h8.56v27.15h47.24v-27.15h8.6v63.21h-8.6v-27.23h-47.24v27.23h-8.56Z"/>
    <path d="M875.39,517.16c-1.27-3.75-1.91-7.45-1.91-11.09,0-2.19.37-4.85,1.11-7.98,1-4.14,2.66-7.81,4.97-11.02,2.31-3.21,5.06-5.81,8.25-7.81,3.19-2,6.7-3.5,10.51-4.52,3.81-1.02,7.84-1.53,12.06-1.53s8.24.51,12.04,1.53c3.8,1.02,7.3,2.53,10.49,4.52,3.19,2,5.94,4.6,8.23,7.81,2.29,3.21,3.94,6.88,4.95,11.02.77,2.81,1.15,5.47,1.15,7.98,0,3.76-.67,7.45-2,11.09-1.24,3.7-3.05,6.97-5.41,9.82-2.37,2.85-5.1,5.15-8.21,6.88-3.1,1.73-6.44,3.03-10,3.9-3.56.87-7.31,1.31-11.24,1.31s-7.69-.44-11.27-1.31c-3.58-.87-6.93-2.17-10.05-3.9-3.12-1.73-5.86-4.01-8.23-6.85-2.37-2.84-4.18-6.12-5.46-9.85ZM882.66,506.07c0,3.13.53,6.04,1.6,8.72,1.06,2.68,2.5,4.95,4.3,6.81,1.8,1.86,3.9,3.46,6.3,4.79,2.4,1.33,4.9,2.31,7.52,2.93,2.62.62,5.29.93,8.01.93s5.39-.31,8.01-.93c2.62-.62,5.11-1.6,7.47-2.93,2.37-1.33,4.44-2.93,6.23-4.79,1.79-1.86,3.22-4.13,4.28-6.81,1.06-2.68,1.6-5.58,1.6-8.72s-.53-5.94-1.6-8.58c-1.06-2.65-2.5-4.9-4.3-6.76-1.8-1.86-3.89-3.46-6.25-4.79-2.37-1.33-4.86-2.31-7.47-2.95-2.62-.64-5.27-.95-7.96-.95s-5.35.32-7.98.95c-2.63.64-5.14,1.62-7.52,2.95-2.38,1.33-4.47,2.93-6.28,4.79-1.8,1.86-3.25,4.12-4.32,6.76-1.08,2.65-1.62,5.51-1.62,8.58Z"/>
    <path d="M966.11,537.78v-63.21h4.66l32.34,44.31,32.25-44.31h4.7v63.21h-8.6v-43.07l-25.64,35.17h-5.54l-25.59-35.17v43.07h-8.56Z"/>
    <path d="M1058.92,537.78v-63.21h57.09v8.78h-48.52v18.36h44.49v8.83h-44.49v18.41h48.52v8.83h-57.09Z"/>
    <path d="M1136.56,528.69l7.45-5.63c2.81,2.34,6.49,4.13,11.04,5.39,4.55,1.26,8.74,1.89,12.55,1.89,2.45,0,4.46-.03,6.03-.09,3.4-.38,5.88-.75,7.45-1.11,6.71-1.6,10.07-4.83,10.07-9.71,0-4.14-3.3-6.68-9.89-7.63-1.92-.33-5.18-.61-9.76-.84-4.58-.24-7.42-.4-8.52-.49-2.96-.27-5.55-.61-7.78-1.02-2.23-.41-4.47-1.05-6.7-1.91-2.23-.86-4.07-1.91-5.5-3.15-1.43-1.24-2.59-2.85-3.48-4.81-.89-1.97-1.33-4.25-1.33-6.85,0-2.93.61-5.54,1.84-7.83,1.23-2.29,2.82-4.15,4.79-5.57,1.97-1.42,4.3-2.59,7.01-3.53,2.71-.93,5.4-1.58,8.09-1.95,2.69-.37,5.5-.55,8.43-.55,4.79,0,10.08.99,15.88,2.97,5.8,1.98,10.82,4.5,15.08,7.54l-7.45,5.37c-2.75-2.28-6.39-4.01-10.91-5.19-4.52-1.18-8.72-1.77-12.6-1.77-2.42,0-4.3.03-5.63.09-1.39.18-2.54.34-3.46.49-.92.15-2.03.38-3.33.71-1.3.33-2.37.74-3.22,1.24-.84.5-1.67,1.12-2.48,1.86-.81.74-1.42,1.66-1.82,2.75-.4,1.09-.6,2.34-.6,3.73,0,4.38,3.27,7.17,9.8,8.38,1.51.27,3.25.49,5.23.67,1.98.18,4.28.35,6.9.51,2.62.16,4.72.32,6.32.47,2.1.18,3.98.38,5.66.6,1.67.22,3.39.54,5.15.95,1.76.41,3.3.9,4.64,1.46,1.33.56,2.59,1.26,3.79,2.11s2.18,1.8,2.95,2.88c.77,1.08,1.38,2.35,1.84,3.81.46,1.46.69,3.08.69,4.86,0,2.25-.37,4.3-1.11,6.17-.74,1.86-1.72,3.45-2.95,4.77-1.23,1.32-2.73,2.48-4.5,3.48-1.77,1.01-3.62,1.82-5.54,2.44-1.92.62-4.01,1.12-6.28,1.51-2.26.38-4.41.65-6.45.8-2.04.15-4.15.22-6.34.22-4.82,0-10.11-.98-15.88-2.95-5.77-1.97-10.82-4.47-15.17-7.52Z"/>
    <path d="M1255.95,537.78v-63.21h4.66l32.34,44.31,32.25-44.31h4.7v63.21h-8.6v-43.07l-25.64,35.17h-5.54l-25.59-35.17v43.07h-8.56Z"/>
    <path d="M1350.14,537.78l35.88-63.21h5.19l35.97,63.21h-10.11l-7.81-13.79h-41.34l-7.81,13.79h-9.98ZM1372.94,515.16h31.36l-15.66-27.72-15.7,27.72Z"/>
    <path d="M1447.29,537.78v-63.21h32.65c4.32,0,8.43.8,12.33,2.4,3.9,1.6,7.28,3.78,10.14,6.54,2.85,2.77,5.12,6.11,6.79,10.02,1.67,3.92,2.51,8.09,2.51,12.53,0,5.94-1.42,11.35-4.26,16.21-2.84,4.86-6.68,8.66-11.53,11.4-4.85,2.74-10.17,4.1-15.97,4.1h-32.65ZM1455.85,528.87h24.08c4.14,0,7.95-.98,11.42-2.93,3.47-1.95,6.22-4.68,8.25-8.18,2.03-3.5,3.04-7.4,3.04-11.69,0-3.19-.6-6.2-1.8-9.03-1.2-2.82-2.82-5.23-4.86-7.21-2.04-1.98-4.46-3.54-7.25-4.68-2.79-1.14-5.73-1.71-8.8-1.71h-24.08v45.42Z"/>
    <path d="M1530.83,537.78v-63.21h57.09v8.78h-48.52v18.36h44.49v8.83h-44.49v18.41h48.52v8.83h-57.09Z"/>
    <path d="M1644.51,528.69l7.45-5.63c2.81,2.34,6.49,4.13,11.04,5.39,4.55,1.26,8.74,1.89,12.55,1.89,2.45,0,4.46-.03,6.03-.09,3.4-.38,5.88-.75,7.45-1.11,6.71-1.6,10.07-4.83,10.07-9.71,0-4.14-3.3-6.68-9.89-7.63-1.92-.33-5.18-.61-9.76-.84-4.58-.24-7.42-.4-8.52-.49-2.96-.27-5.55-.61-7.78-1.02-2.23-.41-4.47-1.05-6.7-1.91-2.23-.86-4.07-1.91-5.5-3.15-1.43-1.24-2.59-2.85-3.48-4.81-.89-1.97-1.33-4.25-1.33-6.85,0-2.93.61-5.54,1.84-7.83,1.23-2.29,2.82-4.15,4.79-5.57,1.97-1.42,4.3-2.59,7.01-3.53,2.71-.93,5.4-1.58,8.09-1.95,2.69-.37,5.5-.55,8.43-.55,4.79,0,10.08.99,15.88,2.97,5.8,1.98,10.82,4.5,15.08,7.54l-7.45,5.37c-2.75-2.28-6.39-4.01-10.91-5.19-4.52-1.18-8.72-1.77-12.6-1.77-2.42,0-4.3.03-5.63.09-1.39.18-2.54.34-3.46.49-.92.15-2.03.38-3.33.71-1.3.33-2.37.74-3.22,1.24-.84.5-1.67,1.12-2.48,1.86-.81.74-1.42,1.66-1.82,2.75-.4,1.09-.6,2.34-.6,3.73,0,4.38,3.27,7.17,9.8,8.38,1.51.27,3.25.49,5.23.67,1.98.18,4.28.35,6.9.51,2.62.16,4.72.32,6.32.47,2.1.18,3.98.38,5.66.6,1.67.22,3.39.54,5.15.95,1.76.41,3.3.9,4.64,1.46,1.33.56,2.59,1.26,3.79,2.11,1.2.84,2.18,1.8,2.95,2.88.77,1.08,1.38,2.35,1.84,3.81.46,1.46.69,3.08.69,4.86,0,2.25-.37,4.3-1.11,6.17-.74,1.86-1.72,3.45-2.95,4.77-1.23,1.32-2.73,2.48-4.5,3.48-1.77,1.01-3.62,1.82-5.54,2.44-1.92.62-4.01,1.12-6.28,1.51-2.26.38-4.41.65-6.45.8-2.04.15-4.15.22-6.34.22-4.82,0-10.11-.98-15.88-2.95-5.77-1.97-10.82-4.47-15.17-7.52Z"/>
    <path d="M1727.87,537.78v-63.21h8.56v63.21h-8.56Z"/>
    <path d="M1757.12,537.78v-63.21h4.66l32.33,44.31,32.25-44.31h4.7v63.21h-8.6v-43.07l-25.64,35.17h-5.54l-25.59-35.17v43.07h-8.56Z"/>
    <path d="M1849.93,537.78v-63.21h41.87c3.34,0,6.44.42,9.29,1.26,2.85.84,5.38,2.08,7.58,3.7,2.2,1.63,3.93,3.76,5.17,6.41,1.24,2.65,1.86,5.66,1.86,9.03,0,13.93-7.23,20.89-21.69,20.89h-35.53v21.91h-8.56ZM1858.49,507.09h35.53c8.46,0,12.69-4.04,12.69-12.11,0-2.04-.48-3.85-1.44-5.43-.96-1.58-2.2-2.8-3.7-3.66-1.51-.86-3.07-1.49-4.68-1.91-1.61-.41-3.2-.62-4.77-.62h-33.62v23.73Z"/>
    <path d="M1934.84,537.78v-63.21h8.56v54.38l52.69-.09v8.83l-61.25.09Z"/>
    <path d="M2015.32,537.78v-63.21h57.09v8.78h-48.52v18.36h44.49v8.83h-44.49v18.41h48.52v8.83h-57.09Z"/>
  </g>
</svg>