<?xml version="1.0" encoding="UTF-8"?>
<svg id="_Шар_1" data-name="Шар 1" xmlns="http://www.w3.org/2000/svg" viewBox="0 0 2382 632">
  <path d="M306.01,422.14h153.21v-46.96h-153.21v46.96ZM306.01,209.71v47.41h153.21v-47.41h-153.21ZM446.49,292.22h-140.48v47.41h140.48v-47.41Z"/>
  <path d="M487.89,422.14v-212.43h51.26v165.47l167.55-.44v47.11l-218.8.3Z"/>
  <path d="M736.36,422.14v-212.43h205.47v47.41h-154.21v35.11h141.47v47.4h-141.47v35.55h154.21v46.96h-205.47Z"/>
  <path d="M1169.37,353.55l42.81,30.07-3.11,2.96c-11.46,12.54-28.1,22.27-49.92,29.18-21.83,6.91-43.6,10.37-65.33,10.37-33.68,0-61.48-7.68-83.4-23.04-21.92-15.36-36-35.73-42.22-61.11-2.47-10.07-3.7-18.76-3.7-26.07s1.23-16.3,3.7-26.37c6.32-25.08,20.47-45.31,42.44-60.66,21.97-15.36,49.7-23.04,83.18-23.04,21.73,0,43.5,3.41,65.33,10.22,21.83,6.81,38.46,16.44,49.92,28.89l3.11,3.26-42.81,30.37-4-3.85c-6.62-6.42-17.06-11.68-31.33-15.78-14.27-4.1-27.68-6.15-40.22-6.15-11.26,0-21.68,1.68-31.26,5.04-9.58,3.36-17.63,7.9-24.15,13.63-6.52,5.73-11.61,12.44-15.26,20.15-3.66,7.7-5.48,15.8-5.48,24.29,0,17.68,7.04,32.57,21.11,44.66,14.07,12.1,32.42,18.15,55.03,18.15,12.64,0,26.07-2,40.29-6s24.64-9.16,31.26-15.48l4-3.7Z"/>
  <path d="M1423.1,347.78c12.44-.99,23.21-3.41,32.3-7.26,9.08-3.85,16.29-8.91,21.62-15.19,5.34-6.27,9.26-13.3,11.78-21.11,2.52-7.8,3.78-16.54,3.78-26.22,0-21.33-7.61-38.04-22.81-50.14-15.21-12.1-36.94-18.15-65.19-18.15h-89.62v47.41h91.11c10.46,0,18.74,1.67,24.81,5.03,6.07,3.36,9.11,8.55,9.11,15.56,0,8.88-1.98,14.96-5.93,18.22-3.95,3.26-11.55,4.89-22.81,4.89h-96.29v46.96h34.96l83.4,74.36h73.78l-84-74.36Z"/>
  <path d="M1531.76,422.14v-212.43h205.47v47.41h-154.21v35.11h141.47v47.4h-141.47v35.55h154.21v46.96h-205.47Z"/>
  <path d="M1766.39,422.14v-212.43h51.26v212.43h-51.26Z"/>
  <path d="M1846.81,422.14v-212.43h115.99c14.52,0,28.05,2.15,40.59,6.44,12.54,4.3,23.16,10,31.85,17.11,8.69,7.11,16.17,15.28,22.44,24.52,6.27,9.24,10.89,18.79,13.85,28.67,2.96,9.88,4.44,19.7,4.44,29.48s-1.48,19.46-4.44,29.33c-2.96,9.88-7.56,19.43-13.78,28.67-6.22,9.24-13.68,17.43-22.37,24.59-8.69,7.16-19.31,12.89-31.85,17.18-12.54,4.3-26.12,6.44-40.74,6.44h-115.99ZM1898.07,374.74h64.74c9.38,0,17.97-1.7,25.78-5.11,7.8-3.41,14.17-7.92,19.11-13.55,4.94-5.63,8.74-11.9,11.41-18.81,2.67-6.91,4-14.02,4-21.33s-1.36-14.12-4.07-21.04c-2.72-6.91-6.54-13.16-11.48-18.74-4.94-5.58-11.28-10.1-19.04-13.56-7.75-3.46-16.32-5.18-25.7-5.18h-64.74v117.33Z"/>
</svg>