<?xml version="1.0" encoding="UTF-8"?>
<svg id="_Шар_1" data-name="Шар 1" xmlns="http://www.w3.org/2000/svg" viewBox="0 0 895 858">
  <path d="M286.21,512.58v59.55h103.23v-59.55h-103.23Z"/>
  <path d="M608.79,572.13h-102.96l-116.38-111.18h-103.23v-59.55h190.28c15.18,0,26.64-.44,32.95-5.51,5.25-4.22,9.36-11.09,8.95-22.35-.41-11.06-3.99-18-12.17-22.25-8.18-4.26-19.47-5.3-33.57-5.3h-186.43v-60.12h184.43c38.07,0,67.35,7.67,87.84,23.02,20.48,15.33,30.74,36.52,30.74,63.57,0,12.26-1.7,23.35-5.09,33.25-3.4,9.9-8.68,18.81-15.87,26.76-7.18,7.97-16.9,14.38-29.14,19.27-12.25,4.88-26.76,7.95-43.52,9.21h-4.03l117.22,111.18Z"/>
</svg>